General
Complete name                    : Enemy at the Gates.mkv
Format                           : Matroska
File size                        : 1.17 GiB
Duration                         : 2h 5mn
Overall bit rate                 : 1 333 Kbps
Writing application              : HandBrake 0.9.4

Video
ID                               : 1
Format                           : AVC
Duration                         : 2h 5mn
Bit rate                         : 858 Kbps
Width                            : 720 pixels
Height                           : 432 pixels
Display aspect ratio             : 2.35:1
Frame rate                       : 25.000 fps
Resolution                       : 8 bits
Colorimetry                      : 4:2:0
Scan type                        : Progressive
Bits/(Pixel*Frame)               : 0.110
Stream size                      : 772 MiB (64%)
Writing library                  : x264 core 79


Audio
ID                               : 2
Format                           : AC-3
Format/Info                      : Audio Coding 3
Codec ID                         : A_AC3
Duration                         : 2h 5mn
Bit rate mode                    : Constant
Bit rate                         : 448 Kbps
Channel(s)                       : 6 channels
Channel positions                : Front: L C R, Side: L R, LFE
Sampling rate                    : 48.0 KHz
Stream size                      : 403 MiB (34%)
Language                         : English

Text #1
Language                         : Arabic

Text #2
Language                         : Bulgarian

Text #3
Language                         : Czech

Text #4
Language                         : Danish

Text #5
Language                         : English

Text #6
Language                         : Hebrew 

Text #7
Language                         : Croatian

Text #8
Language                         : Hungarian

Text #9
Language                         : Dutch

Text #10
Language                         : Norwegian

Text #11
Language                         : Polish

Text #12
Language                         : Portuguese

Text #13
Language                         : Romanian

Text #14
Language                         : Slovenian

Text #15
Language                         : Finnish

Text #16
Language                         : Swedish

Menu
00:00:00.000                     : Chapter 1


